<svg width="650" height="202" viewBox="0 0 650 202" fill="none" xmlns="http://www.w3.org/2000/svg">
<path d="M106 165.5C76.9584 171.558 60.4697 158.675 31 159.5C32.7568 156.913 33.8935 154.748 35.3066 151.958C40.1781 142.341 45.3407 130.44 47.4967 119.899C48.3925 115.519 48.0792 106.781 47.6381 102.32C46.8556 94.4098 45.5427 88.9044 47.6387 80.93C48.2434 78.132 49.0921 75.6106 50.5006 73.1125C52.3313 69.8651 53.9991 70.4056 57.1797 71.255C65.0974 73.3694 72.4968 77.951 79.4601 82.1883C80.6636 85.1328 84.0142 99.0683 85.7184 100.277C88.5903 102.314 105.661 97.1982 109.526 96.8914C114.756 96.4765 125.968 102.936 130.259 102.457C130.547 102.369 130.841 102.471 131.171 102.528C130.23 111 129.005 112.146 124.707 119.241C123.102 121.928 121.613 124.682 120.243 127.496C118.312 131.509 116.211 136.271 114.66 140.462C113.796 142.796 112.8 146.052 111.917 148.453C109.57 154.842 106.404 159.535 106 165.5Z" fill="#FEFEFE"/>
<path d="M73.1435 25.4846C76.5069 23.1881 80.5133 21.4331 84.506 20.3825C85.8214 20.0662 88.6631 20.201 89.826 19.6211C94.593 17.2442 98.775 13.9265 104.47 15.7296C107.474 16.6807 107.03 19.5292 108.3 22.0716L108.376 22.2214C107.913 23.3114 107.473 28.7023 107.967 29.7208C107.642 31.0428 107.141 33.1575 106.706 34.3835C105.56 37.6168 104.455 37.9177 104.328 41.5226C105.936 41.1046 107.494 40.7391 109.034 40.1071C109.886 38.8727 110.634 36.7546 110.979 36.2997C113.188 33.3875 117.704 27.2157 120.5 25.195C126.124 25.8954 129.086 27.2229 132.524 31.9503C133.182 32.8553 133.513 33.2446 133.922 34.3473C133.52 36.437 133.634 37.7974 133.91 39.9033C133.82 41.1571 133.433 42.5029 133.129 43.7333C146.063 41.3613 145.219 40.4154 147.953 53.5628C149.122 59.1816 145.181 61.7202 142.371 65.6829C143.907 65.7583 144.761 65.7165 145.891 66.998C147.762 69.4968 148.139 76.1101 148.172 79.0063C148.215 82.7502 143.467 89.3259 140.599 91.4119C137.853 93.409 133.399 96.8806 130.482 98.6813C131.927 100.338 132.96 101.54 132.682 103.979C131.927 110.618 128.699 115.379 125.303 120.848C122.152 125.921 119.445 132.299 117.13 137.822C115.429 141.883 114.368 146.565 112.618 150.647C110.13 156.336 111.131 153.5 109.985 156.136C108.626 159.26 107.745 162.65 106.5 165.5C106.053 165.798 105.153 166.116 104.5 166C104.904 160.035 109.57 154.842 111.917 148.453C112.8 146.052 113.796 142.796 114.66 140.462C116.211 136.271 118.312 131.509 120.243 127.496C121.613 124.682 123.102 121.928 124.707 119.241C129.005 112.146 130.23 111 131.171 102.528C130.841 102.471 130.547 102.369 130.259 102.457C125.968 102.936 114.756 96.4765 109.526 96.8914C105.661 97.1982 88.5903 102.314 85.7184 100.277C84.0141 99.0683 80.6635 85.1328 79.4601 82.1883C72.4968 77.951 65.0973 73.3694 57.1796 71.255C53.999 70.4056 52.3312 69.8651 50.5005 73.1125C49.092 75.6106 48.2433 78.132 47.6386 80.93C45.5426 88.9044 46.8555 94.4098 47.638 102.32C48.0791 106.781 48.3924 115.519 47.4966 119.899C44.2451 135.796 42.1629 140.176 34.4555 154.094C32.1015 158.344 33.9679 156.093 31.354 159.942C30.8109 159.955 29.9072 160.166 30.2418 159.74C32 157.5 32.2522 156.247 33.2555 154.5C39.9539 142.835 45.444 128.897 47.212 115.596C47.8402 110.843 47.1081 106.639 46.5806 101.863C45.4269 91.4099 44.4968 80.6254 50.7657 71.4557C52.1798 69.3871 52.344 69.6884 54.4796 69.3827C59.6836 62.7188 55.0609 47.9536 60.8249 38.1887C59.853 33.285 62.6163 28.8838 64.8339 24.7475C65.4982 23.5085 66.3064 21.6579 67.8818 21.5888C68.5879 21.9614 68.4878 22.1529 68.9175 23.0406L69.071 23.1081C70.989 23.9683 71.3326 24.258 73.1435 25.4846ZM73.3824 52.4945C74.0742 52.3028 74.9423 52.0366 75.6286 51.8978C77.3203 51.3552 78.0631 51.1018 79.4334 49.8758C78.3267 47.8424 77.371 43.3894 76.2925 42.7453C75.4372 46.2407 73.9693 48.8503 73.3824 52.4945ZM95.0936 31.4296C94.9798 30.3818 95.0623 30.1202 94.1106 29.6638C93.899 31.9974 93.9463 33.345 94.2895 35.658C94.4625 34.6696 94.8258 32.2771 95.0936 31.4296ZM116.827 83.2289L117.595 83.1738L117.133 81.5359L116.098 81.2374C116.329 81.9199 116.538 82.5674 116.827 83.2289Z" fill="#2A2A2A"/>
<path d="M130.259 102.457L130.126 101.752C129.433 101.29 129.491 101.432 128.546 101.365L128.32 101.102C128.489 100.191 128.309 100.457 128.912 99.9856C130.438 100.125 130.987 101.155 131.171 102.528C130.841 102.471 130.547 102.369 130.259 102.457Z" fill="#FEFEFE"/>
<path d="M86.9078 99.9518C86.5501 99.531 86.2283 99.0811 85.9456 98.607C83.9457 95.2393 81.0354 83.5112 79.5679 79.3307C78.1726 75.3557 71.6268 57.7919 72.3169 55.1427C74.936 51.2004 97.6485 44.8906 103.004 42.5838C103.79 42.2454 107.411 41.4764 108.616 41.1512C107.04 43.5061 106.296 44.9864 105.553 47.687C106.494 49.8038 105.875 52.2159 107.646 53.387C109.617 54.6896 112.009 54.5768 114.239 54.1422C114.874 55.0865 115.31 55.867 115.856 56.8541C113.799 58.7744 111.757 60.8136 110.266 63.2097C109.567 61.2318 106.282 51.9995 105.361 50.7968C103.314 50.1507 83.0356 57.8357 80.016 59.1931C81.5919 65.3926 84.2301 71.9201 86.4518 77.9679C87.3886 80.5177 90.3451 90.4537 91.7124 92.296C94.9967 91.8321 116.04 86.2164 116.826 83.2289L117.595 83.1739C118.125 83.9782 119.073 84.449 119.908 84.9592L122.972 84.3064C123.682 84.5876 124.54 84.8204 125.282 85.0413C125.782 86.0087 125.978 86.5279 126.337 87.5625C122.38 89.3257 118.265 91.8208 113.897 93.6577C105.345 97.2537 96.0772 98.9153 86.9078 99.9518Z" fill="#F75D2C"/>
<path d="M103.872 51.7996C105.419 51.7281 106.762 56.3847 107.269 57.7379C108.188 60.1914 109.119 62.7423 109.9 65.238C109.275 66.136 108.747 67.4567 108.292 68.48C109.491 71.0419 109.742 71.5106 112.182 72.8901C113.423 76.2908 114.03 80.1963 115.83 83.2064C110.15 86.2886 100.421 89.6934 94.0193 90.8502C93.4443 90.9499 92.5043 91.2166 91.9077 91.3655C91.4526 90.2173 90.9201 88.284 90.5032 87.0426L86.8827 76.4735C85.3552 72.1233 81.9211 63.87 81.1409 59.6184C84.1398 58.5158 87.9357 56.7324 90.8753 55.8967C94.9847 54.7279 99.8682 52.7219 103.872 51.7996Z" fill="#FEFEFE"/>
<path d="M68.8011 24.5513C69.8728 25.0075 70.9377 25.4788 71.9956 25.9651C72.4713 30.0601 75.1962 34.2875 75.3577 38.7593C75.9873 44.261 70.4794 51.6754 71.4148 56.9C72.7785 64.515 76.6765 73.366 78.8917 80.7215C77.2191 79.4239 74.7819 78.1804 72.8806 77.1883C68.4467 74.6611 64.0815 72.0778 59.0776 70.8947C57.7291 70.5758 56.4027 70.1669 55.0896 69.7236C58.7064 64.1662 57.6586 60.5938 57.8787 54.2538C58.0023 51.081 58.4447 47.9288 59.1996 44.8444C59.7442 42.6922 60.9173 39.3304 62.3135 37.5962C65.5579 33.5662 66.8216 29.2649 68.8011 24.5513Z" fill="#FEFEFE"/>
<path d="M142.572 42.9628C144.886 42.2235 147.634 55.7028 146.369 57.7815C143.836 61.9032 141.348 65.6991 136.924 67.8422C132.601 69.9362 126.728 71.3619 122.8 73.4008C122.721 72.4077 122.274 70.8292 122.021 69.8163C125.016 67.172 129.969 64.3545 133.273 61.8191C134.554 60.8366 137.924 61.526 139.036 60.0563L138.949 59.7459C137.554 59.4534 134.969 61.0779 134.124 60.2085L134.616 57.9924L134.458 57.8734C133.519 59.074 132.933 60.5996 131.8 61.516C130.147 62.9209 121.832 69.0497 120.094 69.5937L119.91 69.4293C120.867 67.1601 124.248 65.6607 124.486 62.7006C124.774 60.3798 123.394 58.274 120.959 58.062C117.174 57.7325 113.734 62.0242 110.91 64.3394C111.373 63.3278 111.969 62.3821 112.682 61.5271C114.947 58.7573 118.466 56.0729 121.154 53.5943C122.893 51.9921 127.142 47.1732 128.629 46.2149C130.505 45.0054 140.281 43.1882 142.572 42.9628Z" fill="#FEFEFE"/>
<path d="M128.326 72.2791C131.574 71.0609 134.754 69.7183 137.94 68.348C139.352 67.7407 141.817 66.965 143.072 66.281C147.428 69.5882 145.873 71.072 146.479 75.6627C147.124 80.5508 146.259 82.5928 143.272 86.406C139.468 92.2992 129.91 95.4573 126.935 101.16C121.786 98.8933 116.781 97.7577 111.788 95.7845C116.371 93.6165 123.027 90.5675 127.331 87.98C127.025 86.9788 126.594 85.3823 126.14 84.4937C131.899 83.3609 133.797 80.8066 139.645 79.8926L139.845 79.541C139.4 78.6005 138.364 78.7468 137.484 79.0777C133.007 80.7604 128.319 83.631 123.462 83.9606C126.685 81.9095 132.359 80.858 133.559 77.1386C134.057 75.5937 132.141 73.1262 130.634 72.8937C129.888 72.7743 129.114 73.0173 128.368 73.2122L128.326 72.2791Z" fill="#FEFEFE"/>
<path d="M88.9172 20.6225C89.0809 20.5768 89.8548 20.5076 89.9316 20.6171C91.1227 22.5091 92.8863 27.0616 93.1905 29.2901C93.7108 33.1007 92.2231 37.736 96.176 40.5494C93.8751 41.3685 91.4195 41.9523 89.1483 42.7401C86.5376 43.6455 83.7466 44.7674 81.155 45.764C80.4682 46.0123 79.8557 46.3047 79.1353 46.2345C78.5083 45.5553 77.353 41.4636 77.1226 40.3682C76.2246 36.1023 73.5669 30.4948 73.589 26.2198C79.7213 22.1754 81.6226 21.7709 88.9172 20.6225Z" fill="#6B6A6B"/>
<path d="M120.477 25.9117C121.046 25.9985 121.613 26.1006 122.176 26.2181C126.346 27.1041 129.509 29.5886 131.931 33.0856C133.917 35.9527 132.737 40.5791 132.005 43.8417C126.65 45.931 125.317 47.7217 121.463 51.9467C120.151 53.386 118.227 54.9471 116.66 56.1254L115.57 54.1175C122.038 48.3832 122.167 44.173 127.7 37.671C125.183 38.7572 124.799 39.4214 123.419 41.6824C121.05 45.8436 119.143 50.0189 115.325 52.9023C115.953 51.4101 117.301 48.4779 118.584 46.43C121.452 41.8539 120.133 37.7573 114.071 38.4229C113.021 38.5382 108.484 46.7856 106.956 47.3053L106.994 46.6425L106.963 47.2925L107.103 47.2339C106.779 45.7153 109.338 42.3031 109.931 40.5501C111.86 34.8414 116.685 30.4413 120.477 25.9117Z" fill="#FEFEFE"/>
<path d="M91.2571 20.2037C97.8004 14.1412 107.719 13.4667 107.469 25.5057C107.404 28.6581 105.787 34.3365 103.629 36.7045C104.196 34.0557 105.601 28.6763 104.572 26.1181C104.01 24.72 98.562 24.4056 97.539 25.4849C96.6547 26.4177 95.2938 30.1107 95.0933 31.4296C94.9795 30.3819 95.0621 30.1202 94.1103 29.6638C94.2914 27.8904 95.0582 22.717 95.0009 21.3516L94.8034 21.1483C93.9985 22.0824 94.0386 24.0362 93.515 25.5191L93.0873 25.5505L93.7086 24.9704L93.0986 25.5748L93.1395 25.6479L93.4641 25.5935L93.3214 25.7387C92.9401 25.3723 91.4175 21.0312 91.2571 20.2037Z" fill="#FEFEFE"/>
<path d="M119.439 58.9184C121.609 58.8761 123.448 59.5831 123.679 61.9069C123.974 64.8764 118.478 68.8486 116.705 71.0746C115.985 71.2982 115.162 71.5058 114.428 71.7092C112.537 71.8911 110.822 71.732 109.857 69.7641C108.26 66.5117 117.019 59.9601 119.439 58.9184Z" fill="#F75D2C"/>
<path d="M114.479 38.8996C116.192 39.0392 118.765 40.0642 119.354 41.8409C119.366 43.9989 115.132 51.0177 113.557 52.8912C113.346 53.1421 112.589 53.3901 112.248 53.4941C101.802 53.8441 112.068 42.4095 114.479 38.8996Z" fill="#F75D2C"/>
<path d="M99.4457 25.566C105.023 25.5126 104.446 27.5393 103.689 32.2145C103.187 35.316 102.782 38.8034 99.3379 39.6055C98.6843 39.6866 97.8767 39.71 97.2075 39.7464C96.6468 39.4613 95.0564 38.7294 94.9623 38.1087C94.5168 35.1685 96.8175 29.6879 97.8334 26.8186C98.1534 25.9146 98.8567 25.7656 99.4457 25.566Z" fill="#F75D2C"/>
<path d="M129.054 74.1202C130.356 74.0114 131.846 74.0222 132.344 75.4697C133.682 79.3604 126.819 81.0059 124.337 82.3106C123.509 82.7454 122.91 83.1404 122.099 83.4418C121.209 83.6588 120.4 83.9571 119.563 83.6246C117.401 81.7876 118.451 78.8665 120.77 77.794C123.518 76.5238 126.231 75.2092 129.054 74.1202Z" fill="#F75D2C"/>
<path d="M113.127 72.8159C115.741 72.3567 118.564 72.0192 120.937 70.8687C121.311 71.8902 121.677 72.915 122.033 73.9428C120.869 74.9175 121.125 74.3873 120.66 75.713C119.411 79.27 117.19 76.9585 117.133 81.5359L116.098 81.2374C114.838 78.2263 114.083 75.9883 113.127 72.8159Z" fill="#F75D2C"/>
<path d="M96.4049 41.3979L96.8853 41.6392C97.2465 42.2528 97.4299 42.4639 97.3843 43.193C96.6641 44.1591 83.1362 48.5007 81.0303 49.1582C80.792 49.1946 80.6114 49.1601 80.3688 49.1398L80.0382 48.7021C79.9949 48.3352 79.9062 48.1095 80.0909 47.775C81.1881 45.7896 93.8254 42.06 96.4049 41.3979Z" fill="#FEFEFE"/>
<path d="M67.4597 22.6316L67.6851 22.8432C68.3728 25.0276 64.3837 32.7651 63.1783 35.0176C62.9863 35.3769 61.9821 36.2287 61.6185 36.5239L61.3902 36.2007C61.2593 32.6738 65.1165 25.2551 67.4597 22.6316Z" fill="#F75D2C"/>
<path d="M103.133 39.0269L103.28 39.1669C103.996 41.8847 100.537 42.4544 98.4986 43.1499C98.3707 42.7664 98.0329 41.8892 98.1294 41.543C98.3785 40.6509 100.444 40.4423 101.15 40.1026C101.839 39.7711 102.486 39.3997 103.133 39.0269Z" fill="#FEFEFE"/>
<path d="M128.368 73.2123C127.392 73.7853 122.595 75.9873 121.694 75.7447C122.64 74.6217 126.875 72.7685 128.326 72.2792L128.368 73.2123Z" fill="#FEFEFE"/>
<path d="M94.2893 35.658C93.9461 33.345 93.8989 31.9974 94.1104 29.6638C95.0622 30.1202 94.9796 30.3819 95.0934 31.4296C94.8257 32.2771 94.4623 34.6697 94.2893 35.658Z" fill="#FEFEFE" fill-opacity="0.811765"/>
<path d="M116.098 81.2374L117.133 81.536L117.595 83.1739L116.826 83.2289C116.538 82.5675 116.329 81.9199 116.098 81.2374Z" fill="#F3834B" fill-opacity="0.705882"/>
<path d="M108.376 22.2214C109.644 24.6242 108.709 27.2676 107.967 29.7209C107.473 28.7024 107.913 23.3115 108.376 22.2214Z" fill="#2A2A2A"/>
<path d="M133.922 34.3473C134.566 36.2794 134.36 37.9413 133.91 39.9034C133.634 37.7974 133.52 36.437 133.922 34.3473Z" fill="#2A2A2A"/>
<path d="M594.753 65.1017C596.204 64.7909 597.55 60.8541 595.893 60.8541L592.888 61.0613C591.127 61.1649 589.055 61.1649 587.398 61.1649C585.429 61.1649 583.254 61.1649 581.285 61.0613L578.074 60.8541C576.209 60.8541 577.141 64.2729 581.078 65.1017V136.586C577.141 137.725 576.209 140.833 578.074 140.833C579.213 140.833 580.353 140.833 581.596 140.73C583.564 140.626 586.154 140.523 588.123 140.523C590.091 140.523 592.474 140.626 594.442 140.73C595.582 140.833 596.722 140.833 597.861 140.833C599.726 140.833 598.897 137.725 594.753 136.586V65.1017Z" fill="#6B6A6B"/>
<path d="M543.734 81.4705C545.185 81.1597 546.532 77.2229 544.874 77.2229L541.87 77.4301C540.108 77.5338 538.036 77.5337 536.379 77.5337C534.41 77.5337 532.235 77.5338 530.266 77.4301L527.055 77.2229C525.19 77.2229 526.122 80.6417 530.059 81.4705V136.586C526.122 137.725 525.19 140.833 527.055 140.833C528.194 140.833 529.334 140.833 530.577 140.73C532.546 140.626 535.136 140.523 537.104 140.523C539.072 140.523 541.455 140.626 543.424 140.73C544.563 140.833 545.703 140.833 546.842 140.833C548.707 140.833 547.878 137.725 543.734 136.586V81.4705ZM537.104 60.2325C531.613 60.2325 528.712 63.0297 528.712 66.6557C528.712 70.2817 531.302 73.0789 537.104 73.0789C542.491 73.0789 545.496 70.2817 545.496 66.6557C545.496 63.0297 542.491 60.2325 537.104 60.2325Z" fill="#6B6A6B"/>
<path d="M448.433 92.3485C453.509 88.7225 458.171 85.8217 466.563 85.8217C476.612 85.8217 479.409 91.1053 479.409 99.8077H475.472C451.126 99.8077 433.929 107.681 433.929 123.843C433.929 135.446 442.32 141.869 455.063 141.869C463.04 141.869 471.225 139.279 479.409 133.478V136.586C477.855 137.104 476.508 140.833 478.27 140.833C479.305 140.833 480.342 140.833 481.274 140.73C482.932 140.626 485.004 140.523 486.765 140.523C488.526 140.523 490.805 140.626 492.773 140.73C493.913 140.833 494.949 140.833 496.089 140.833C497.85 140.833 497.125 137.415 493.084 136.586V100.429C493.084 84.9929 486.868 75.5653 470.085 75.5653C460.45 75.5653 450.298 78.9841 442.942 82.6101C440.456 80.6417 437.865 81.2633 438.591 82.8173C439.109 83.3353 439.523 83.8533 440.041 84.5785C440.87 85.7181 441.906 87.2721 442.838 88.9297C443.667 90.5873 444.496 92.3485 445.014 93.5917L445.843 95.7673C446.464 97.3213 448.744 95.5601 448.433 92.3485ZM479.202 108.925V121.564C472.882 125.708 463.869 131.199 456.928 131.199C451.955 131.199 447.293 127.987 447.293 123.118C447.293 114.312 460.45 108.925 474.229 108.925H479.202Z" fill="#6B6A6B"/>
<path d="M404.405 99.7041C404.405 82.8173 396.739 75.5653 382.131 75.5653C373.843 75.5653 365.348 79.0877 357.475 86.0289V81.4705C358.925 81.1597 360.272 77.2229 358.614 77.2229L355.61 77.4301C353.849 77.5337 351.777 77.5337 350.119 77.5337C348.151 77.5337 345.975 77.5337 344.007 77.4301L340.795 77.2229C338.93 77.2229 339.863 80.6417 343.799 81.4705V136.586C339.863 137.725 338.93 140.833 340.795 140.833C341.935 140.833 343.074 140.833 344.317 140.73C346.286 140.626 348.876 140.523 350.844 140.523C352.813 140.523 355.195 140.626 357.164 140.73C358.303 140.833 359.443 140.833 360.583 140.833C362.447 140.833 361.619 137.725 357.475 136.586V96.8033C360.79 93.4881 368.456 87.0649 377.884 87.0649C387.415 87.0649 390.73 93.1773 390.73 101.465V136.586C386.793 137.725 385.965 140.833 387.726 140.833C388.865 140.833 390.109 140.833 391.352 140.73C393.424 140.626 395.807 140.523 397.775 140.523C399.743 140.523 402.126 140.626 404.095 140.73C405.234 140.833 406.477 140.833 407.617 140.833C409.378 140.833 408.653 137.725 404.405 136.586V99.7041Z" fill="#6B6A6B"/>
<path d="M277.39 100.939C276.872 100.628 276.147 100.421 274.904 100.421C274.386 100.421 274.075 100.835 274.075 101.56C274.075 101.871 274.075 102.182 274.179 102.7C274.282 103.529 274.386 105.083 274.386 107.258C274.386 109.434 274.282 110.884 274.282 111.713C274.179 112.231 274.179 112.645 274.179 112.956C274.179 113.785 274.489 114.199 275.007 114.199C276.147 114.199 276.976 113.992 277.494 113.681C277.805 113.474 278.012 113.267 278.115 113.06C279.669 113.06 281.327 113.06 282.985 112.956C285.782 112.853 289.201 112.749 291.998 112.749C294.899 112.749 298.525 112.853 301.529 112.956C303.29 113.06 304.948 113.06 306.709 113.06C306.813 113.267 307.02 113.474 307.331 113.681C307.849 113.992 308.677 114.199 309.817 114.199C310.335 114.199 310.646 113.785 310.646 112.956L310.439 111.817C310.335 110.988 310.335 109.537 310.335 107.362C310.335 105.186 310.335 103.736 310.439 102.803C310.439 102.285 310.439 101.871 310.542 101.56C310.542 100.835 310.231 100.421 309.713 100.421C308.47 100.421 307.641 100.628 307.227 100.939L306.605 101.457L301.425 101.664C298.525 101.767 294.795 101.767 291.998 101.767C289.201 101.767 285.782 101.767 282.985 101.664L278.115 101.457L277.39 100.939Z" fill="#6B6A6B"/>
<path d="M229.783 122.911C226.883 126.433 220.977 130.991 213.725 130.991C202.122 130.991 194.041 122.807 194.041 109.546H244.702C244.702 91.3125 235.274 75.5653 213.725 75.5653C194.145 75.5653 180.159 90.7945 180.159 108.614C180.159 129.23 195.492 141.766 214.14 141.766C223.671 141.766 232.684 137.829 239.315 132.131C242.63 134.099 245.634 132.235 244.287 131.199L241.697 129.023C240.143 127.78 238.382 126.122 237.035 124.568C235.792 123.325 234.135 121.667 232.788 120.113L230.405 117.523C229.058 116.177 227.504 119.181 229.783 122.911ZM213.829 86.3397C224.189 86.3397 229.473 93.3845 229.473 100.015H195.285C197.771 92.2449 203.158 86.3397 213.829 86.3397Z" fill="#6B6A6B"/>
</svg>
