<svg width="667" height="222" viewBox="0 0 667 222" fill="none" xmlns="http://www.w3.org/2000/svg">
<path d="M123 185.5C93.9584 191.558 77.4697 178.675 48 179.5C49.7568 176.913 50.8935 174.748 52.3066 171.958C57.1781 162.341 62.3407 150.44 64.4967 139.899C65.3925 135.519 65.0792 126.781 64.6381 122.32C63.8556 114.41 62.5427 108.904 64.6387 100.93C65.2434 98.132 66.0921 95.6106 67.5006 93.1125C69.3313 89.8651 70.9991 90.4056 74.1797 91.255C82.0974 93.3694 89.4968 97.951 96.4601 102.188C97.6636 105.133 101.014 119.068 102.718 120.277C105.59 122.314 122.661 117.198 126.526 116.891C131.756 116.476 142.968 122.936 147.259 122.457C147.547 122.369 147.841 122.471 148.171 122.528C147.23 131 146.005 132.146 141.707 139.241C140.102 141.928 138.613 144.682 137.243 147.496C135.312 151.509 133.211 156.271 131.66 160.462C130.796 162.796 129.8 166.052 128.917 168.453C126.57 174.842 123.404 179.535 123 185.5Z" fill="#FEFEFE"/>
<path d="M90.1435 45.4846C93.5069 43.1881 97.5133 41.4331 101.506 40.3825C102.821 40.0662 105.663 40.201 106.826 39.6211C111.593 37.2442 115.775 33.9265 121.47 35.7296C124.474 36.6807 124.03 39.5292 125.3 42.0716L125.376 42.2214C124.913 43.3114 124.473 48.7023 124.967 49.7208C124.642 51.0428 124.141 53.1575 123.706 54.3835C122.56 57.6168 121.455 57.9177 121.328 61.5226C122.936 61.1046 124.494 60.7391 126.034 60.1071C126.886 58.8727 127.634 56.7546 127.979 56.2997C130.188 53.3875 134.704 47.2157 137.5 45.195C143.124 45.8954 146.086 47.2229 149.524 51.9503C150.182 52.8553 150.513 53.2446 150.922 54.3473C150.52 56.437 150.634 57.7974 150.91 59.9033C150.82 61.1571 150.433 62.5029 150.129 63.7333C163.063 61.3613 162.219 60.4154 164.953 73.5628C166.122 79.1816 162.181 81.7202 159.371 85.6829C160.907 85.7583 161.761 85.7165 162.891 86.998C164.762 89.4968 165.139 96.1101 165.172 99.0063C165.215 102.75 160.467 109.326 157.599 111.412C154.853 113.409 150.399 116.881 147.482 118.681C148.927 120.338 149.96 121.54 149.682 123.979C148.927 130.618 145.699 135.379 142.303 140.848C139.152 145.921 136.445 152.299 134.13 157.822C132.429 161.883 131.368 166.565 129.618 170.647C127.13 176.336 128.131 173.5 126.985 176.136C125.626 179.26 124.745 182.65 123.5 185.5C123.053 185.798 122.153 186.116 121.5 186C121.904 180.035 126.57 174.842 128.917 168.453C129.8 166.052 130.796 162.796 131.66 160.462C133.211 156.271 135.312 151.509 137.243 147.496C138.613 144.682 140.102 141.928 141.707 139.241C146.005 132.146 147.23 131 148.171 122.528C147.841 122.471 147.547 122.369 147.259 122.457C142.968 122.936 131.756 116.476 126.526 116.891C122.661 117.198 105.59 122.314 102.718 120.277C101.014 119.068 97.6635 105.133 96.4601 102.188C89.4968 97.951 82.0973 93.3694 74.1796 91.255C70.999 90.4056 69.3312 89.8651 67.5005 93.1125C66.092 95.6106 65.2433 98.132 64.6386 100.93C62.5426 108.904 63.8555 114.41 64.638 122.32C65.0791 126.781 65.3924 135.519 64.4966 139.899C61.2451 155.796 59.1629 160.176 51.4555 174.094C49.1015 178.344 50.9679 176.093 48.354 179.942C47.8109 179.955 46.9072 180.166 47.2418 179.74C49 177.5 49.2522 176.247 50.2555 174.5C56.9539 162.835 62.444 148.897 64.212 135.596C64.8402 130.843 64.1081 126.639 63.5806 121.863C62.4269 111.41 61.4968 100.625 67.7657 91.4557C69.1798 89.3871 69.344 89.6884 71.4796 89.3827C76.6836 82.7188 72.0609 67.9536 77.8249 58.1887C76.853 53.285 79.6163 48.8838 81.8339 44.7475C82.4982 43.5085 83.3064 41.6579 84.8818 41.5888C85.5879 41.9614 85.4878 42.1529 85.9175 43.0406L86.071 43.1081C87.989 43.9683 88.3326 44.258 90.1435 45.4846ZM90.3824 72.4945C91.0742 72.3028 91.9423 72.0366 92.6286 71.8978C94.3203 71.3552 95.0631 71.1018 96.4334 69.8758C95.3267 67.8424 94.371 63.3894 93.2925 62.7453C92.4372 66.2407 90.9693 68.8503 90.3824 72.4945ZM112.094 51.4296C111.98 50.3818 112.062 50.1202 111.111 49.6638C110.899 51.9974 110.946 53.345 111.289 55.658C111.462 54.6696 111.826 52.2771 112.094 51.4296ZM133.827 103.229L134.595 103.174L134.133 101.536L133.098 101.237C133.329 101.92 133.538 102.567 133.827 103.229Z" fill="#2A2A2A"/>
<path d="M147.259 122.457L147.126 121.752C146.433 121.29 146.491 121.432 145.546 121.365L145.32 121.102C145.489 120.191 145.309 120.457 145.912 119.986C147.438 120.125 147.987 121.155 148.171 122.528C147.841 122.471 147.547 122.369 147.259 122.457Z" fill="#FEFEFE"/>
<path d="M103.908 119.952C103.55 119.531 103.228 119.081 102.946 118.607C100.946 115.239 98.0354 103.511 96.5679 99.3307C95.1726 95.3557 88.6268 77.7919 89.3169 75.1427C91.936 71.2004 114.649 64.8906 120.004 62.5838C120.79 62.2454 124.411 61.4764 125.616 61.1512C124.04 63.5061 123.296 64.9864 122.553 67.687C123.494 69.8038 122.875 72.2159 124.646 73.387C126.617 74.6896 129.009 74.5768 131.239 74.1422C131.874 75.0865 132.31 75.867 132.856 76.8541C130.799 78.7744 128.757 80.8136 127.266 83.2097C126.567 81.2318 123.282 71.9995 122.361 70.7968C120.314 70.1507 100.036 77.8357 97.016 79.1931C98.5919 85.3926 101.23 91.9201 103.452 97.9679C104.389 100.518 107.345 110.454 108.712 112.296C111.997 111.832 133.04 106.216 133.826 103.229L134.595 103.174C135.125 103.978 136.073 104.449 136.908 104.959L139.972 104.306C140.682 104.588 141.54 104.82 142.282 105.041C142.782 106.009 142.978 106.528 143.337 107.562C139.38 109.326 135.265 111.821 130.897 113.658C122.345 117.254 113.077 118.915 103.908 119.952Z" fill="#F75D2C"/>
<path d="M120.872 71.7996C122.419 71.7281 123.762 76.3847 124.269 77.7379C125.188 80.1914 126.119 82.7423 126.9 85.238C126.275 86.136 125.747 87.4567 125.292 88.48C126.491 91.0419 126.742 91.5106 129.182 92.8901C130.423 96.2908 131.03 100.196 132.83 103.206C127.15 106.289 117.421 109.693 111.019 110.85C110.444 110.95 109.504 111.217 108.908 111.366C108.453 110.217 107.92 108.284 107.503 107.043L103.883 96.4735C102.355 92.1233 98.9211 83.87 98.1409 79.6184C101.14 78.5158 104.936 76.7324 107.875 75.8967C111.985 74.7279 116.868 72.7219 120.872 71.7996Z" fill="#FEFEFE"/>
<path d="M85.8011 44.5513C86.8728 45.0075 87.9377 45.4788 88.9956 45.9651C89.4713 50.0601 92.1962 54.2875 92.3577 58.7593C92.9873 64.261 87.4794 71.6754 88.4148 76.9C89.7785 84.515 93.6765 93.366 95.8917 100.721C94.2191 99.4239 91.7819 98.1804 89.8806 97.1883C85.4467 94.6611 81.0815 92.0778 76.0776 90.8947C74.7291 90.5758 73.4027 90.1669 72.0896 89.7236C75.7064 84.1662 74.6586 80.5938 74.8787 74.2538C75.0023 71.081 75.4447 67.9288 76.1996 64.8444C76.7442 62.6922 77.9173 59.3304 79.3135 57.5962C82.5579 53.5662 83.8216 49.2649 85.8011 44.5513Z" fill="#FEFEFE"/>
<path d="M159.572 62.9628C161.886 62.2235 164.634 75.7028 163.369 77.7815C160.836 81.9032 158.348 85.6991 153.924 87.8422C149.601 89.9362 143.728 91.3619 139.8 93.4008C139.721 92.4077 139.274 90.8292 139.021 89.8163C142.016 87.172 146.969 84.3545 150.273 81.8191C151.554 80.8366 154.924 81.526 156.036 80.0563L155.949 79.7459C154.554 79.4534 151.969 81.0779 151.124 80.2085L151.616 77.9924L151.458 77.8734C150.519 79.074 149.933 80.5996 148.8 81.516C147.147 82.9209 138.832 89.0497 137.094 89.5937L136.91 89.4293C137.867 87.1601 141.248 85.6607 141.486 82.7006C141.774 80.3798 140.394 78.274 137.959 78.062C134.174 77.7325 130.734 82.0242 127.91 84.3394C128.373 83.3278 128.969 82.3821 129.682 81.5271C131.947 78.7573 135.466 76.0729 138.154 73.5943C139.893 71.9921 144.142 67.1732 145.629 66.2149C147.505 65.0054 157.281 63.1882 159.572 62.9628Z" fill="#FEFEFE"/>
<path d="M145.326 92.2791C148.574 91.0609 151.754 89.7183 154.94 88.348C156.352 87.7407 158.817 86.965 160.072 86.281C164.428 89.5882 162.873 91.072 163.479 95.6627C164.124 100.551 163.259 102.593 160.272 106.406C156.468 112.299 146.91 115.457 143.935 121.16C138.786 118.893 133.781 117.758 128.788 115.784C133.371 113.616 140.027 110.567 144.331 107.98C144.025 106.979 143.594 105.382 143.14 104.494C148.899 103.361 150.797 100.807 156.645 99.8926L156.845 99.541C156.4 98.6005 155.364 98.7468 154.484 99.0777C150.007 100.76 145.319 103.631 140.462 103.961C143.685 101.909 149.359 100.858 150.559 97.1386C151.057 95.5937 149.141 93.1262 147.634 92.8937C146.888 92.7743 146.114 93.0173 145.368 93.2122L145.326 92.2791Z" fill="#FEFEFE"/>
<path d="M105.917 40.6225C106.081 40.5768 106.855 40.5076 106.932 40.6171C108.123 42.5091 109.886 47.0616 110.19 49.2901C110.711 53.1007 109.223 57.736 113.176 60.5494C110.875 61.3685 108.419 61.9523 106.148 62.7401C103.538 63.6455 100.747 64.7674 98.155 65.764C97.4682 66.0123 96.8557 66.3047 96.1353 66.2345C95.5083 65.5553 94.353 61.4636 94.1226 60.3682C93.2246 56.1023 90.5669 50.4948 90.589 46.2198C96.7213 42.1754 98.6226 41.7709 105.917 40.6225Z" fill="#6B6A6B"/>
<path d="M137.477 45.9117C138.046 45.9985 138.613 46.1006 139.176 46.2181C143.346 47.1041 146.509 49.5886 148.931 53.0856C150.917 55.9527 149.737 60.5791 149.005 63.8417C143.65 65.931 142.317 67.7217 138.463 71.9467C137.151 73.386 135.227 74.9471 133.66 76.1254L132.57 74.1175C139.038 68.3832 139.167 64.173 144.7 57.671C142.183 58.7572 141.799 59.4214 140.419 61.6824C138.05 65.8436 136.143 70.0189 132.325 72.9023C132.953 71.4101 134.301 68.4779 135.584 66.43C138.452 61.8539 137.133 57.7573 131.071 58.4229C130.021 58.5382 125.484 66.7856 123.956 67.3053L123.994 66.6425L123.963 67.2925L124.103 67.2339C123.779 65.7153 126.338 62.3031 126.931 60.5501C128.86 54.8414 133.685 50.4413 137.477 45.9117Z" fill="#FEFEFE"/>
<path d="M108.257 40.2037C114.8 34.1412 124.719 33.4667 124.469 45.5057C124.404 48.6581 122.787 54.3365 120.629 56.7045C121.196 54.0557 122.601 48.6763 121.572 46.1181C121.01 44.72 115.562 44.4056 114.539 45.4849C113.655 46.4177 112.294 50.1107 112.093 51.4296C111.979 50.3819 112.062 50.1202 111.11 49.6638C111.291 47.8904 112.058 42.717 112.001 41.3516L111.803 41.1483C110.998 42.0824 111.039 44.0362 110.515 45.5191L110.087 45.5505L110.709 44.9704L110.099 45.5748L110.14 45.6479L110.464 45.5935L110.321 45.7387C109.94 45.3723 108.418 41.0312 108.257 40.2037Z" fill="#FEFEFE"/>
<path d="M136.439 78.9184C138.609 78.8761 140.448 79.5831 140.679 81.9069C140.974 84.8764 135.478 88.8486 133.705 91.0746C132.985 91.2982 132.162 91.5058 131.428 91.7092C129.537 91.8911 127.822 91.732 126.857 89.7641C125.26 86.5117 134.019 79.9601 136.439 78.9184Z" fill="#F75D2C"/>
<path d="M131.479 58.8996C133.192 59.0392 135.765 60.0642 136.354 61.8409C136.366 63.9989 132.132 71.0177 130.557 72.8912C130.346 73.1421 129.589 73.3901 129.248 73.4941C118.802 73.8441 129.068 62.4095 131.479 58.8996Z" fill="#F75D2C"/>
<path d="M116.446 45.566C122.023 45.5126 121.446 47.5393 120.689 52.2145C120.187 55.316 119.782 58.8034 116.338 59.6055C115.684 59.6866 114.877 59.71 114.207 59.7464C113.647 59.4613 112.056 58.7294 111.962 58.1087C111.517 55.1685 113.817 49.6879 114.833 46.8186C115.153 45.9146 115.857 45.7656 116.446 45.566Z" fill="#F75D2C"/>
<path d="M146.054 94.1202C147.356 94.0114 148.846 94.0222 149.344 95.4697C150.682 99.3604 143.819 101.006 141.337 102.311C140.509 102.745 139.91 103.14 139.099 103.442C138.209 103.659 137.4 103.957 136.563 103.625C134.401 101.788 135.451 98.8665 137.77 97.794C140.518 96.5238 143.231 95.2092 146.054 94.1202Z" fill="#F75D2C"/>
<path d="M130.127 92.8159C132.741 92.3567 135.564 92.0192 137.937 90.8687C138.311 91.8902 138.677 92.915 139.033 93.9428C137.869 94.9175 138.125 94.3873 137.66 95.713C136.411 99.27 134.19 96.9585 134.133 101.536L133.098 101.237C131.838 98.2263 131.083 95.9883 130.127 92.8159Z" fill="#F75D2C"/>
<path d="M113.405 61.3979L113.885 61.6392C114.246 62.2528 114.43 62.4639 114.384 63.193C113.664 64.1591 100.136 68.5007 98.0303 69.1582C97.792 69.1946 97.6114 69.1601 97.3688 69.1398L97.0382 68.7021C96.9949 68.3352 96.9062 68.1095 97.0909 67.775C98.1881 65.7896 110.825 62.06 113.405 61.3979Z" fill="#FEFEFE"/>
<path d="M84.4597 42.6316L84.6851 42.8432C85.3728 45.0276 81.3837 52.7651 80.1783 55.0176C79.9863 55.3769 78.9821 56.2287 78.6185 56.5239L78.3902 56.2007C78.2593 52.6738 82.1165 45.2551 84.4597 42.6316Z" fill="#F75D2C"/>
<path d="M120.133 59.0269L120.28 59.1669C120.996 61.8847 117.537 62.4544 115.499 63.1499C115.371 62.7664 115.033 61.8892 115.129 61.543C115.378 60.6509 117.444 60.4423 118.15 60.1026C118.839 59.7711 119.486 59.3997 120.133 59.0269Z" fill="#FEFEFE"/>
<path d="M145.368 93.2123C144.392 93.7853 139.595 95.9873 138.694 95.7447C139.64 94.6217 143.875 92.7685 145.326 92.2792L145.368 93.2123Z" fill="#FEFEFE"/>
<path d="M111.289 55.658C110.946 53.345 110.899 51.9974 111.11 49.6638C112.062 50.1202 111.98 50.3819 112.093 51.4296C111.826 52.2771 111.462 54.6697 111.289 55.658Z" fill="#FEFEFE" fill-opacity="0.811765"/>
<path d="M133.098 101.237L134.133 101.536L134.595 103.174L133.826 103.229C133.538 102.567 133.329 101.92 133.098 101.237Z" fill="#F3834B" fill-opacity="0.705882"/>
<path d="M125.376 42.2214C126.644 44.6242 125.709 47.2676 124.967 49.7209C124.473 48.7024 124.913 43.3115 125.376 42.2214Z" fill="#2A2A2A"/>
<path d="M150.922 54.3473C151.566 56.2794 151.36 57.9413 150.91 59.9034C150.634 57.7974 150.52 56.437 150.922 54.3473Z" fill="#2A2A2A"/>
<path d="M611.753 85.1017C613.204 84.7909 614.55 80.8541 612.893 80.8541L609.888 81.0613C608.127 81.1649 606.055 81.1649 604.398 81.1649C602.429 81.1649 600.254 81.1649 598.285 81.0613L595.074 80.8541C593.209 80.8541 594.141 84.2729 598.078 85.1017V156.586C594.141 157.725 593.209 160.833 595.074 160.833C596.213 160.833 597.353 160.833 598.596 160.73C600.564 160.626 603.154 160.523 605.123 160.523C607.091 160.523 609.474 160.626 611.442 160.73C612.582 160.833 613.722 160.833 614.861 160.833C616.726 160.833 615.897 157.725 611.753 156.586V85.1017Z" fill="black"/>
<path d="M560.734 101.471C562.185 101.16 563.532 97.2229 561.874 97.2229L558.87 97.4301C557.108 97.5338 555.036 97.5337 553.379 97.5337C551.41 97.5337 549.235 97.5338 547.266 97.4301L544.055 97.2229C542.19 97.2229 543.122 100.642 547.059 101.471V156.586C543.122 157.725 542.19 160.833 544.055 160.833C545.194 160.833 546.334 160.833 547.577 160.73C549.546 160.626 552.136 160.523 554.104 160.523C556.072 160.523 558.455 160.626 560.424 160.73C561.563 160.833 562.703 160.833 563.842 160.833C565.707 160.833 564.878 157.725 560.734 156.586V101.471ZM554.104 80.2325C548.613 80.2325 545.712 83.0297 545.712 86.6557C545.712 90.2817 548.302 93.0789 554.104 93.0789C559.491 93.0789 562.496 90.2817 562.496 86.6557C562.496 83.0297 559.491 80.2325 554.104 80.2325Z" fill="black"/>
<path d="M465.433 112.349C470.509 108.723 475.171 105.822 483.563 105.822C493.612 105.822 496.409 111.105 496.409 119.808H492.472C468.126 119.808 450.929 127.681 450.929 143.843C450.929 155.446 459.32 161.869 472.063 161.869C480.04 161.869 488.225 159.279 496.409 153.478V156.586C494.855 157.104 493.508 160.833 495.27 160.833C496.305 160.833 497.342 160.833 498.274 160.73C499.932 160.626 502.004 160.523 503.765 160.523C505.526 160.523 507.805 160.626 509.773 160.73C510.913 160.833 511.949 160.833 513.089 160.833C514.85 160.833 514.125 157.415 510.084 156.586V120.429C510.084 104.993 503.868 95.5653 487.085 95.5653C477.45 95.5653 467.298 98.9841 459.942 102.61C457.456 100.642 454.865 101.263 455.591 102.817C456.109 103.335 456.523 103.853 457.041 104.579C457.87 105.718 458.906 107.272 459.838 108.93C460.667 110.587 461.496 112.349 462.014 113.592L462.843 115.767C463.464 117.321 465.744 115.56 465.433 112.349ZM496.202 128.925V141.564C489.882 145.708 480.869 151.199 473.928 151.199C468.955 151.199 464.293 147.987 464.293 143.118C464.293 134.312 477.45 128.925 491.229 128.925H496.202Z" fill="black"/>
<path d="M421.405 119.704C421.405 102.817 413.739 95.5653 399.131 95.5653C390.843 95.5653 382.348 99.0877 374.475 106.029V101.471C375.925 101.16 377.272 97.2229 375.614 97.2229L372.61 97.4301C370.849 97.5337 368.777 97.5337 367.119 97.5337C365.151 97.5337 362.975 97.5337 361.007 97.4301L357.795 97.2229C355.93 97.2229 356.863 100.642 360.799 101.471V156.586C356.863 157.725 355.93 160.833 357.795 160.833C358.935 160.833 360.074 160.833 361.317 160.73C363.286 160.626 365.876 160.523 367.844 160.523C369.813 160.523 372.195 160.626 374.164 160.73C375.303 160.833 376.443 160.833 377.583 160.833C379.447 160.833 378.619 157.725 374.475 156.586V116.803C377.79 113.488 385.456 107.065 394.884 107.065C404.415 107.065 407.73 113.177 407.73 121.465V156.586C403.793 157.725 402.965 160.833 404.726 160.833C405.865 160.833 407.109 160.833 408.352 160.73C410.424 160.626 412.807 160.523 414.775 160.523C416.743 160.523 419.126 160.626 421.095 160.73C422.234 160.833 423.477 160.833 424.617 160.833C426.378 160.833 425.653 157.725 421.405 156.586V119.704Z" fill="black"/>
<path d="M294.39 120.939C293.872 120.628 293.147 120.421 291.904 120.421C291.386 120.421 291.075 120.835 291.075 121.56C291.075 121.871 291.075 122.182 291.179 122.7C291.282 123.529 291.386 125.083 291.386 127.258C291.386 129.434 291.282 130.884 291.282 131.713C291.179 132.231 291.179 132.645 291.179 132.956C291.179 133.785 291.489 134.199 292.007 134.199C293.147 134.199 293.976 133.992 294.494 133.681C294.805 133.474 295.012 133.267 295.115 133.06C296.669 133.06 298.327 133.06 299.985 132.956C302.782 132.853 306.201 132.749 308.998 132.749C311.899 132.749 315.525 132.853 318.529 132.956C320.29 133.06 321.948 133.06 323.709 133.06C323.813 133.267 324.02 133.474 324.331 133.681C324.849 133.992 325.677 134.199 326.817 134.199C327.335 134.199 327.646 133.785 327.646 132.956L327.439 131.817C327.335 130.988 327.335 129.537 327.335 127.362C327.335 125.186 327.335 123.736 327.439 122.803C327.439 122.285 327.439 121.871 327.542 121.56C327.542 120.835 327.231 120.421 326.713 120.421C325.47 120.421 324.641 120.628 324.227 120.939L323.605 121.457L318.425 121.664C315.525 121.767 311.795 121.767 308.998 121.767C306.201 121.767 302.782 121.767 299.985 121.664L295.115 121.457L294.39 120.939Z" fill="black"/>
<path d="M246.783 142.911C243.883 146.433 237.977 150.991 230.725 150.991C219.122 150.991 211.041 142.807 211.041 129.546H261.702C261.702 111.313 252.274 95.5653 230.725 95.5653C211.145 95.5653 197.159 110.795 197.159 128.614C197.159 149.23 212.492 161.766 231.14 161.766C240.671 161.766 249.684 157.829 256.315 152.131C259.63 154.099 262.634 152.235 261.287 151.199L258.697 149.023C257.143 147.78 255.382 146.122 254.035 144.568C252.792 143.325 251.135 141.667 249.788 140.113L247.405 137.523C246.058 136.177 244.504 139.181 246.783 142.911ZM230.829 106.34C241.189 106.34 246.473 113.385 246.473 120.015H212.285C214.771 112.245 220.158 106.34 230.829 106.34Z" fill="black"/>
</svg>
